<mxfile host="app.diagrams.net" agent="Mozilla/5.0 (Windows NT 10.0; Win64; x64) AppleWebKit/537.36 (KHTML, like Gecko) Chrome/135.0.0.0 Safari/537.36" version="26.2.13">
  <diagram name="Page-1" id="jSBp5JrF-GaakVivtsG2">
    <mxGraphModel dx="2278" dy="897" grid="1" gridSize="10" guides="1" tooltips="1" connect="1" arrows="1" fold="1" page="1" pageScale="1" pageWidth="850" pageHeight="1100" math="0" shadow="0">
      <root>
        <mxCell id="0" />
        <mxCell id="1" parent="0" />
        <mxCell id="zY_l4fbShEZEDNNQPnIy-1" value="&lt;font style=&quot;font-size: 14px;&quot;&gt;Απλός Αναγνώστης&lt;/font&gt;" style="shape=umlActor;verticalLabelPosition=bottom;verticalAlign=top;html=1;outlineConnect=0;" parent="1" vertex="1">
          <mxGeometry x="-40" y="320" width="40" height="70" as="geometry" />
        </mxCell>
        <mxCell id="zY_l4fbShEZEDNNQPnIy-2" value="" style="endArrow=none;html=1;rounded=0;" parent="1" source="zY_l4fbShEZEDNNQPnIy-1" target="zY_l4fbShEZEDNNQPnIy-3" edge="1">
          <mxGeometry width="50" height="50" relative="1" as="geometry">
            <mxPoint x="30" y="350" as="sourcePoint" />
            <mxPoint x="110" y="260" as="targetPoint" />
          </mxGeometry>
        </mxCell>
        <mxCell id="zY_l4fbShEZEDNNQPnIy-3" value="" style="shape=umlBoundary;whiteSpace=wrap;html=1;" parent="1" vertex="1">
          <mxGeometry x="180" y="200" width="100" height="80" as="geometry" />
        </mxCell>
        <mxCell id="zY_l4fbShEZEDNNQPnIy-4" value="&lt;font style=&quot;font-size: 14px;&quot;&gt;Homepage&lt;/font&gt;" style="text;html=1;align=center;verticalAlign=middle;resizable=0;points=[];autosize=1;strokeColor=none;fillColor=none;" parent="1" vertex="1">
          <mxGeometry x="190" y="170" width="90" height="30" as="geometry" />
        </mxCell>
        <mxCell id="zY_l4fbShEZEDNNQPnIy-5" value="&lt;font style=&quot;font-size: 14px;&quot;&gt;Επιλογή αιτήσεων από&amp;nbsp;&lt;/font&gt;&lt;div&gt;&lt;font style=&quot;font-size: 14px;&quot;&gt;άλλους χρήστες&lt;/font&gt;&lt;/div&gt;" style="text;html=1;align=center;verticalAlign=middle;resizable=0;points=[];autosize=1;strokeColor=none;fillColor=none;rotation=-15;" parent="1" vertex="1">
          <mxGeometry y="250" width="170" height="50" as="geometry" />
        </mxCell>
        <mxCell id="zY_l4fbShEZEDNNQPnIy-6" value="&lt;span style=&quot;font-size: 14px;&quot;&gt;&lt;font style=&quot;&quot;&gt;Εμφάνιση βιβλίων που έχει δεχθεί αιτήματα από χρήστες&lt;/font&gt;&lt;/span&gt;" style="ellipse;shape=umlControl;whiteSpace=wrap;html=1;fontColor=#00CC00;" parent="1" vertex="1">
          <mxGeometry x="340" y="240" width="160" height="110" as="geometry" />
        </mxCell>
        <mxCell id="zY_l4fbShEZEDNNQPnIy-7" value="" style="endArrow=none;html=1;rounded=0;entryX=0.044;entryY=0.409;entryDx=0;entryDy=0;entryPerimeter=0;exitX=1.01;exitY=0.621;exitDx=0;exitDy=0;exitPerimeter=0;" parent="1" source="zY_l4fbShEZEDNNQPnIy-3" target="zY_l4fbShEZEDNNQPnIy-6" edge="1">
          <mxGeometry width="50" height="50" relative="1" as="geometry">
            <mxPoint x="311" y="309" as="sourcePoint" />
            <mxPoint x="367" y="294" as="targetPoint" />
          </mxGeometry>
        </mxCell>
        <mxCell id="zY_l4fbShEZEDNNQPnIy-8" value="" style="shape=umlBoundary;whiteSpace=wrap;html=1;" parent="1" vertex="1">
          <mxGeometry x="190" y="340" width="100" height="80" as="geometry" />
        </mxCell>
        <mxCell id="zY_l4fbShEZEDNNQPnIy-9" value="&lt;font style=&quot;font-size: 14px;&quot;&gt;My Requests&lt;/font&gt;" style="text;html=1;align=center;verticalAlign=middle;resizable=0;points=[];autosize=1;strokeColor=none;fillColor=none;" parent="1" vertex="1">
          <mxGeometry x="190" y="310" width="110" height="30" as="geometry" />
        </mxCell>
        <mxCell id="zY_l4fbShEZEDNNQPnIy-10" value="" style="endArrow=none;html=1;rounded=0;entryX=0.993;entryY=0.496;entryDx=0;entryDy=0;entryPerimeter=0;" parent="1" source="zY_l4fbShEZEDNNQPnIy-6" target="zY_l4fbShEZEDNNQPnIy-8" edge="1">
          <mxGeometry width="50" height="50" relative="1" as="geometry">
            <mxPoint x="291" y="260" as="sourcePoint" />
            <mxPoint x="356" y="295" as="targetPoint" />
            <Array as="points" />
          </mxGeometry>
        </mxCell>
        <mxCell id="kHBdI92u4aIt1j1fS1Kz-2" value="" style="endArrow=none;html=1;rounded=0;entryX=-0.01;entryY=0.5;entryDx=0;entryDy=0;entryPerimeter=0;" parent="1" source="zY_l4fbShEZEDNNQPnIy-1" target="zY_l4fbShEZEDNNQPnIy-8" edge="1">
          <mxGeometry width="50" height="50" relative="1" as="geometry">
            <mxPoint x="373" y="345" as="sourcePoint" />
            <mxPoint x="294" y="410" as="targetPoint" />
          </mxGeometry>
        </mxCell>
        <mxCell id="kHBdI92u4aIt1j1fS1Kz-3" value="&lt;font style=&quot;font-size: 14px;&quot;&gt;Επιλογή βιβλίου&amp;nbsp;&lt;/font&gt;&lt;div&gt;&lt;font style=&quot;font-size: 14px;&quot;&gt;προσφοράς&lt;/font&gt;&lt;/div&gt;" style="text;html=1;align=center;verticalAlign=middle;resizable=0;points=[];autosize=1;strokeColor=none;fillColor=none;rotation=5;fontColor=#00CC00;" parent="1" vertex="1">
          <mxGeometry x="55" y="330" width="130" height="50" as="geometry" />
        </mxCell>
        <mxCell id="kHBdI92u4aIt1j1fS1Kz-4" value="&lt;span style=&quot;font-size: 14px;&quot;&gt;Ενημέρωση κατάστασης αιτήματος&lt;/span&gt;" style="ellipse;shape=umlControl;whiteSpace=wrap;html=1;" parent="1" vertex="1">
          <mxGeometry x="610" y="450" width="110" height="90" as="geometry" />
        </mxCell>
        <mxCell id="kHBdI92u4aIt1j1fS1Kz-5" value="" style="endArrow=none;html=1;rounded=0;exitX=1;exitY=0.625;exitDx=0;exitDy=0;exitPerimeter=0;entryX=0.01;entryY=0.768;entryDx=0;entryDy=0;entryPerimeter=0;strokeColor=#00CC00;" parent="1" source="zY_l4fbShEZEDNNQPnIy-8" target="IBThrQu5mGDKIIndIDEA-4" edge="1">
          <mxGeometry width="50" height="50" relative="1" as="geometry">
            <mxPoint x="291" y="260" as="sourcePoint" />
            <mxPoint x="356" y="295" as="targetPoint" />
          </mxGeometry>
        </mxCell>
        <mxCell id="kHBdI92u4aIt1j1fS1Kz-6" value="" style="ellipse;shape=umlEntity;whiteSpace=wrap;html=1;" parent="1" vertex="1">
          <mxGeometry x="575" y="260" width="80" height="80" as="geometry" />
        </mxCell>
        <mxCell id="kHBdI92u4aIt1j1fS1Kz-7" value="&lt;font style=&quot;font-size: 14px;&quot;&gt;Βάση Δεδομένων&lt;/font&gt;" style="text;html=1;align=center;verticalAlign=middle;resizable=0;points=[];autosize=1;strokeColor=none;fillColor=none;" parent="1" vertex="1">
          <mxGeometry x="560" y="230" width="130" height="30" as="geometry" />
        </mxCell>
        <mxCell id="kHBdI92u4aIt1j1fS1Kz-8" value="" style="endArrow=none;html=1;rounded=0;entryX=0;entryY=0.5;entryDx=0;entryDy=0;" parent="1" source="zY_l4fbShEZEDNNQPnIy-6" target="kHBdI92u4aIt1j1fS1Kz-6" edge="1">
          <mxGeometry width="50" height="50" relative="1" as="geometry">
            <mxPoint x="291" y="260" as="sourcePoint" />
            <mxPoint x="356" y="295" as="targetPoint" />
          </mxGeometry>
        </mxCell>
        <mxCell id="kHBdI92u4aIt1j1fS1Kz-9" value="" style="endArrow=none;html=1;rounded=0;" parent="1" source="kHBdI92u4aIt1j1fS1Kz-4" target="kHBdI92u4aIt1j1fS1Kz-6" edge="1">
          <mxGeometry width="50" height="50" relative="1" as="geometry">
            <mxPoint x="495" y="307" as="sourcePoint" />
            <mxPoint x="585" y="310" as="targetPoint" />
          </mxGeometry>
        </mxCell>
        <mxCell id="kHBdI92u4aIt1j1fS1Kz-10" value="&lt;span style=&quot;font-size: 14px;&quot;&gt;Ειδοποίηση μέσω email τον ενδιαφερόμενο χρήστη&lt;/span&gt;" style="ellipse;shape=umlControl;whiteSpace=wrap;html=1;" parent="1" vertex="1">
          <mxGeometry x="-20" y="730" width="140" height="120" as="geometry" />
        </mxCell>
        <mxCell id="kHBdI92u4aIt1j1fS1Kz-12" value="" style="shape=umlBoundary;whiteSpace=wrap;html=1;" parent="1" vertex="1">
          <mxGeometry x="130" y="610" width="100" height="80" as="geometry" />
        </mxCell>
        <mxCell id="kHBdI92u4aIt1j1fS1Kz-13" value="&lt;font style=&quot;font-size: 14px;&quot;&gt;Request Replied&lt;/font&gt;" style="text;html=1;align=center;verticalAlign=middle;resizable=0;points=[];autosize=1;strokeColor=none;fillColor=none;" parent="1" vertex="1">
          <mxGeometry x="140" y="580" width="130" height="30" as="geometry" />
        </mxCell>
        <mxCell id="kHBdI92u4aIt1j1fS1Kz-19" value="&lt;span style=&quot;font-size: 14px;&quot;&gt;Εμφάνιση μηνύματος επιβεβαίωσης&lt;/span&gt;&lt;div&gt;&lt;span style=&quot;font-size: 14px;&quot;&gt;κατάστασης&lt;/span&gt;&lt;/div&gt;" style="ellipse;shape=umlControl;whiteSpace=wrap;html=1;" parent="1" vertex="1">
          <mxGeometry x="430" y="590" width="120" height="100" as="geometry" />
        </mxCell>
        <mxCell id="kHBdI92u4aIt1j1fS1Kz-21" value="" style="endArrow=none;html=1;rounded=0;entryX=0.009;entryY=0.522;entryDx=0;entryDy=0;entryPerimeter=0;exitX=1.05;exitY=0.625;exitDx=0;exitDy=0;exitPerimeter=0;" parent="1" source="kHBdI92u4aIt1j1fS1Kz-12" target="kHBdI92u4aIt1j1fS1Kz-19" edge="1">
          <mxGeometry width="50" height="50" relative="1" as="geometry">
            <mxPoint x="412" y="662" as="sourcePoint" />
            <mxPoint x="499" y="658" as="targetPoint" />
          </mxGeometry>
        </mxCell>
        <mxCell id="kHBdI92u4aIt1j1fS1Kz-22" value="" style="endArrow=none;html=1;rounded=0;" parent="1" source="zY_l4fbShEZEDNNQPnIy-1" target="kHBdI92u4aIt1j1fS1Kz-12" edge="1">
          <mxGeometry width="50" height="50" relative="1" as="geometry">
            <mxPoint x="10" y="374" as="sourcePoint" />
            <mxPoint x="229" y="470" as="targetPoint" />
          </mxGeometry>
        </mxCell>
        <mxCell id="kHBdI92u4aIt1j1fS1Kz-31" value="" style="shape=umlBoundary;whiteSpace=wrap;html=1;strokeColor=#FF3333;" parent="1" vertex="1">
          <mxGeometry x="-395" y="300" width="100" height="80" as="geometry" />
        </mxCell>
        <mxCell id="kHBdI92u4aIt1j1fS1Kz-32" value="&lt;font style=&quot;font-size: 14px;&quot;&gt;My Requests&lt;/font&gt;" style="text;html=1;align=center;verticalAlign=middle;resizable=0;points=[];autosize=1;strokeColor=none;fillColor=none;fontColor=#FF3333;" parent="1" vertex="1">
          <mxGeometry x="-390" y="270" width="110" height="30" as="geometry" />
        </mxCell>
        <mxCell id="kHBdI92u4aIt1j1fS1Kz-37" value="" style="endArrow=none;html=1;rounded=0;strokeColor=#FF3333;exitX=1;exitY=0.625;exitDx=0;exitDy=0;exitPerimeter=0;" parent="1" source="kHBdI92u4aIt1j1fS1Kz-31" target="zY_l4fbShEZEDNNQPnIy-1" edge="1">
          <mxGeometry width="50" height="50" relative="1" as="geometry">
            <mxPoint x="-30" y="358" as="sourcePoint" />
            <mxPoint x="-265" y="280" as="targetPoint" />
          </mxGeometry>
        </mxCell>
        <mxCell id="kHBdI92u4aIt1j1fS1Kz-38" value="&lt;font style=&quot;font-size: 13px;&quot;&gt;Επιλογή συνομιλίας με&amp;nbsp;&lt;/font&gt;&lt;div&gt;&lt;font style=&quot;font-size: 13px;&quot;&gt;ενδιαφερόμενο χρήστη&lt;/font&gt;&lt;/div&gt;" style="text;html=1;align=center;verticalAlign=middle;resizable=0;points=[];autosize=1;strokeColor=none;fillColor=none;rotation=0;fontColor=#FF3333;" parent="1" vertex="1">
          <mxGeometry x="-255" y="310" width="160" height="40" as="geometry" />
        </mxCell>
        <mxCell id="kHBdI92u4aIt1j1fS1Kz-39" value="&lt;span style=&quot;font-size: 14px;&quot;&gt;Εμφάνιση παραθύρου συνομιλίας&lt;/span&gt;" style="ellipse;shape=umlControl;whiteSpace=wrap;html=1;strokeColor=#FF3333;fontColor=#FF3333;" parent="1" vertex="1">
          <mxGeometry x="-510" y="420" width="100" height="100" as="geometry" />
        </mxCell>
        <mxCell id="kHBdI92u4aIt1j1fS1Kz-40" value="" style="endArrow=none;html=1;rounded=0;strokeColor=#FF3333;" parent="1" source="kHBdI92u4aIt1j1fS1Kz-31" target="kHBdI92u4aIt1j1fS1Kz-39" edge="1">
          <mxGeometry width="50" height="50" relative="1" as="geometry">
            <mxPoint x="-272" y="320" as="sourcePoint" />
            <mxPoint x="-70" y="510" as="targetPoint" />
          </mxGeometry>
        </mxCell>
        <mxCell id="kHBdI92u4aIt1j1fS1Kz-41" value="" style="shape=umlBoundary;whiteSpace=wrap;html=1;strokeColor=#FF3333;" parent="1" vertex="1">
          <mxGeometry x="-385" y="480" width="100" height="80" as="geometry" />
        </mxCell>
        <mxCell id="kHBdI92u4aIt1j1fS1Kz-42" value="&lt;font style=&quot;color: rgb(255, 51, 51);&quot;&gt;Contact Requester&lt;/font&gt;" style="text;html=1;align=center;verticalAlign=middle;resizable=0;points=[];autosize=1;strokeColor=none;fillColor=none;fontSize=14;" parent="1" vertex="1">
          <mxGeometry x="-390" y="450" width="140" height="30" as="geometry" />
        </mxCell>
        <mxCell id="kHBdI92u4aIt1j1fS1Kz-44" value="" style="endArrow=none;html=1;rounded=0;strokeColor=#FF3333;" parent="1" source="kHBdI92u4aIt1j1fS1Kz-41" target="kHBdI92u4aIt1j1fS1Kz-39" edge="1">
          <mxGeometry width="50" height="50" relative="1" as="geometry">
            <mxPoint x="-370" y="483" as="sourcePoint" />
            <mxPoint x="-411" y="493" as="targetPoint" />
          </mxGeometry>
        </mxCell>
        <mxCell id="kHBdI92u4aIt1j1fS1Kz-45" value="" style="endArrow=none;html=1;rounded=0;strokeColor=#FF3333;" parent="1" source="kHBdI92u4aIt1j1fS1Kz-41" edge="1">
          <mxGeometry width="50" height="50" relative="1" as="geometry">
            <mxPoint x="-270" y="480" as="sourcePoint" />
            <mxPoint x="-30" y="374" as="targetPoint" />
          </mxGeometry>
        </mxCell>
        <mxCell id="kHBdI92u4aIt1j1fS1Kz-46" value="Συνομιλία με&amp;nbsp;&lt;div&gt;ε&lt;span style=&quot;background-color: transparent;&quot;&gt;νδιαφερόμενο χρήστη&lt;/span&gt;&lt;/div&gt;" style="text;html=1;align=center;verticalAlign=middle;resizable=0;points=[];autosize=1;strokeColor=none;fillColor=none;fontColor=#FF3333;rotation=-30;fontSize=13;" parent="1" vertex="1">
          <mxGeometry x="-265" y="400" width="150" height="40" as="geometry" />
        </mxCell>
        <mxCell id="kHBdI92u4aIt1j1fS1Kz-47" value="" style="shape=umlBoundary;whiteSpace=wrap;html=1;strokeColor=#FF3333;" parent="1" vertex="1">
          <mxGeometry x="-240" y="630" width="100" height="80" as="geometry" />
        </mxCell>
        <mxCell id="kHBdI92u4aIt1j1fS1Kz-48" value="&lt;font style=&quot;font-size: 14px;&quot;&gt;My Requests&lt;/font&gt;" style="text;html=1;align=center;verticalAlign=middle;resizable=0;points=[];autosize=1;strokeColor=none;fillColor=none;fontColor=#FF3333;" parent="1" vertex="1">
          <mxGeometry x="-240" y="600" width="110" height="30" as="geometry" />
        </mxCell>
        <mxCell id="kHBdI92u4aIt1j1fS1Kz-49" value="" style="endArrow=none;html=1;rounded=0;strokeColor=#FF3333;exitX=0.992;exitY=0.348;exitDx=0;exitDy=0;exitPerimeter=0;" parent="1" source="kHBdI92u4aIt1j1fS1Kz-47" target="zY_l4fbShEZEDNNQPnIy-1" edge="1">
          <mxGeometry width="50" height="50" relative="1" as="geometry">
            <mxPoint x="-155" y="578" as="sourcePoint" />
            <mxPoint x="100" y="492" as="targetPoint" />
          </mxGeometry>
        </mxCell>
        <mxCell id="kHBdI92u4aIt1j1fS1Kz-50" value="&lt;font style=&quot;font-size: 13px;&quot;&gt;Επιλογή απάντησης σε αίτημα&amp;nbsp;&lt;/font&gt;&lt;div&gt;&lt;font style=&quot;font-size: 13px;&quot;&gt;μη διαθέσιμου βιβλίου&amp;nbsp;&lt;/font&gt;&lt;/div&gt;" style="text;html=1;align=center;verticalAlign=middle;resizable=0;points=[];autosize=1;strokeColor=none;fillColor=none;rotation=-65;fontColor=#FF3333;" parent="1" vertex="1">
          <mxGeometry x="-210" y="500" width="200" height="40" as="geometry" />
        </mxCell>
        <mxCell id="kHBdI92u4aIt1j1fS1Kz-52" value="&lt;span style=&quot;font-size: 14px;&quot;&gt;Εμφάνιση αποτυχίας αιτήματος&lt;/span&gt;" style="ellipse;shape=umlControl;whiteSpace=wrap;html=1;strokeColor=#FF3333;fontColor=#FF3333;" parent="1" vertex="1">
          <mxGeometry x="-235" y="740" width="100" height="100" as="geometry" />
        </mxCell>
        <mxCell id="kHBdI92u4aIt1j1fS1Kz-53" value="" style="endArrow=none;html=1;rounded=0;strokeColor=#FF3333;" parent="1" source="kHBdI92u4aIt1j1fS1Kz-47" target="kHBdI92u4aIt1j1fS1Kz-52" edge="1">
          <mxGeometry width="50" height="50" relative="1" as="geometry">
            <mxPoint x="-385" y="471" as="sourcePoint" />
            <mxPoint x="-414" y="484" as="targetPoint" />
          </mxGeometry>
        </mxCell>
        <mxCell id="kHBdI92u4aIt1j1fS1Kz-54" value="" style="shape=umlBoundary;whiteSpace=wrap;html=1;strokeColor=#FF3333;" parent="1" vertex="1">
          <mxGeometry x="-90" y="640" width="100" height="80" as="geometry" />
        </mxCell>
        <mxCell id="kHBdI92u4aIt1j1fS1Kz-55" value="Request Failed" style="text;html=1;align=center;verticalAlign=middle;resizable=0;points=[];autosize=1;strokeColor=none;fillColor=none;fontColor=#FF3333;fontSize=14;" parent="1" vertex="1">
          <mxGeometry x="-90" y="618" width="120" height="30" as="geometry" />
        </mxCell>
        <mxCell id="kHBdI92u4aIt1j1fS1Kz-56" value="" style="endArrow=none;html=1;rounded=0;strokeColor=#FF3333;entryX=0.442;entryY=0.963;entryDx=0;entryDy=0;entryPerimeter=0;" parent="1" source="kHBdI92u4aIt1j1fS1Kz-52" target="kHBdI92u4aIt1j1fS1Kz-54" edge="1">
          <mxGeometry width="50" height="50" relative="1" as="geometry">
            <mxPoint x="-178" y="720" as="sourcePoint" />
            <mxPoint x="-177" y="750" as="targetPoint" />
          </mxGeometry>
        </mxCell>
        <mxCell id="L1eFblCToiuCsabLMlnT-1" value="" style="endArrow=none;html=1;rounded=0;" parent="1" source="kHBdI92u4aIt1j1fS1Kz-12" target="kHBdI92u4aIt1j1fS1Kz-10" edge="1">
          <mxGeometry width="50" height="50" relative="1" as="geometry">
            <mxPoint x="325" y="628" as="sourcePoint" />
            <mxPoint x="441" y="647" as="targetPoint" />
          </mxGeometry>
        </mxCell>
        <mxCell id="L1eFblCToiuCsabLMlnT-2" value="" style="endArrow=none;html=1;rounded=0;exitX=0.636;exitY=0.978;exitDx=0;exitDy=0;exitPerimeter=0;" parent="1" source="kHBdI92u4aIt1j1fS1Kz-4" target="kHBdI92u4aIt1j1fS1Kz-19" edge="1">
          <mxGeometry width="50" height="50" relative="1" as="geometry">
            <mxPoint x="325" y="628" as="sourcePoint" />
            <mxPoint x="441" y="647" as="targetPoint" />
          </mxGeometry>
        </mxCell>
        <mxCell id="IBThrQu5mGDKIIndIDEA-4" value="&lt;span style=&quot;font-size: 14px;&quot;&gt;&lt;font style=&quot;&quot;&gt;Εμφάνιση όλων των αιτημάτων από χρήστες&lt;/font&gt;&lt;/span&gt;" style="ellipse;shape=umlControl;whiteSpace=wrap;html=1;strokeColor=#00CC00;fontColor=#00CC00;" parent="1" vertex="1">
          <mxGeometry x="425" y="375" width="110" height="90" as="geometry" />
        </mxCell>
        <mxCell id="IBThrQu5mGDKIIndIDEA-5" value="" style="endArrow=none;html=1;rounded=0;entryX=0.273;entryY=1.034;entryDx=0;entryDy=0;entryPerimeter=0;exitX=0.894;exitY=0.237;exitDx=0;exitDy=0;exitPerimeter=0;strokeColor=#00FF00;" parent="1" source="IBThrQu5mGDKIIndIDEA-4" target="kHBdI92u4aIt1j1fS1Kz-6" edge="1">
          <mxGeometry width="50" height="50" relative="1" as="geometry">
            <mxPoint x="637" y="458" as="sourcePoint" />
            <mxPoint x="628" y="350" as="targetPoint" />
          </mxGeometry>
        </mxCell>
        <mxCell id="IBThrQu5mGDKIIndIDEA-7" value="" style="endArrow=none;html=1;rounded=0;exitX=0.273;exitY=1;exitDx=0;exitDy=0;exitPerimeter=0;strokeColor=#00CC00;entryX=0.95;entryY=0.5;entryDx=0;entryDy=0;entryPerimeter=0;fontColor=#00CC00;" parent="1" source="IBThrQu5mGDKIIndIDEA-4" target="IBThrQu5mGDKIIndIDEA-12" edge="1">
          <mxGeometry width="50" height="50" relative="1" as="geometry">
            <mxPoint x="548" y="431" as="sourcePoint" />
            <mxPoint x="260" y="470" as="targetPoint" />
          </mxGeometry>
        </mxCell>
        <mxCell id="IBThrQu5mGDKIIndIDEA-11" value="" style="endArrow=none;html=1;rounded=0;entryX=0.095;entryY=0.243;entryDx=0;entryDy=0;entryPerimeter=0;exitX=0.861;exitY=0.879;exitDx=0;exitDy=0;exitPerimeter=0;strokeColor=#00FF00;fontColor=#00CC00;" parent="1" source="IBThrQu5mGDKIIndIDEA-4" target="kHBdI92u4aIt1j1fS1Kz-4" edge="1">
          <mxGeometry width="50" height="50" relative="1" as="geometry">
            <mxPoint x="533" y="406" as="sourcePoint" />
            <mxPoint x="607" y="353" as="targetPoint" />
          </mxGeometry>
        </mxCell>
        <mxCell id="IBThrQu5mGDKIIndIDEA-12" value="" style="shape=umlBoundary;whiteSpace=wrap;html=1;strokeColor=#00CC00;fontColor=#00CC00;" parent="1" vertex="1">
          <mxGeometry x="220" y="500" width="100" height="80" as="geometry" />
        </mxCell>
        <mxCell id="IBThrQu5mGDKIIndIDEA-13" value="&lt;font style=&quot;font-size: 14px;&quot;&gt;Approve User&lt;/font&gt;" style="text;html=1;align=center;verticalAlign=middle;resizable=0;points=[];autosize=1;strokeColor=none;fillColor=none;fontColor=#00CC00;" parent="1" vertex="1">
          <mxGeometry x="220" y="470" width="110" height="30" as="geometry" />
        </mxCell>
        <mxCell id="IBThrQu5mGDKIIndIDEA-14" value="" style="endArrow=none;html=1;rounded=0;strokeColor=#00CC00;entryX=-0.017;entryY=0.588;entryDx=0;entryDy=0;entryPerimeter=0;fontColor=#00CC00;" parent="1" source="zY_l4fbShEZEDNNQPnIy-1" target="IBThrQu5mGDKIIndIDEA-12" edge="1">
          <mxGeometry width="50" height="50" relative="1" as="geometry">
            <mxPoint x="465" y="475" as="sourcePoint" />
            <mxPoint x="150" y="490" as="targetPoint" />
          </mxGeometry>
        </mxCell>
        <mxCell id="aPOb-NUqgsjgJjBVCBKc-1" value="Επιλογή αιτήματος για&amp;nbsp;&lt;div&gt;αποδοχή&amp;nbsp;&lt;span style=&quot;background-color: transparent;&quot;&gt;ή απόρριψη&amp;nbsp;&lt;/span&gt;&lt;/div&gt;" style="text;html=1;align=center;verticalAlign=middle;resizable=0;points=[];autosize=1;strokeColor=none;fillColor=none;rotation=35;fontSize=14;fontColor=#00CC00;" vertex="1" parent="1">
          <mxGeometry x="60" y="420" width="170" height="50" as="geometry" />
        </mxCell>
      </root>
    </mxGraphModel>
  </diagram>
</mxfile>
